<svg xmlns="http://www.w3.org/2000/svg" viewBox="0 0 900 600">
  <defs>
    <linearGradient id="bg" x1="0" y1="0" x2="1" y2="1">
      <stop offset="0%" stop-color="#0f1724"/>
      <stop offset="100%" stop-color="#10294c"/>
    </linearGradient>
    <linearGradient id="accent" x1="0" y1="0" x2="1" y2="1">
      <stop offset="0%" stop-color="#ff6b6b"/>
      <stop offset="100%" stop-color="#38bdf8"/>
    </linearGradient>
  </defs>
  <rect width="900" height="600" rx="40" fill="url(#bg)"/>
  <circle cx="220" cy="180" r="90" fill="#15263d"/>
  <circle cx="262" cy="170" r="54" fill="url(#accent)" opacity="0.75"/>
  <rect x="120" y="340" width="640" height="180" rx="24" fill="#0f1724" opacity="0.95"/>
  <rect x="156" y="386" width="520" height="18" rx="9" fill="#1f3d61"/>
  <rect x="156" y="424" width="420" height="18" rx="9" fill="#1f3d61"/>
  <rect x="156" y="462" width="320" height="18" rx="9" fill="#1f3d61"/>
  <path d="M520 124h204a20 20 0 0 1 20 20v82" fill="none" stroke="#38bdf8" stroke-width="24" stroke-linecap="round" opacity="0.8"/>
  <path d="M520 124h204a20 20 0 0 0 20-20v-24" fill="none" stroke="#ff6b6b" stroke-width="24" stroke-linecap="round" opacity="0.8"/>
  <text x="60" y="120" fill="#e6eef6" font-family="Inter, sans-serif" font-size="44" font-weight="700">Placeholder</text>
  <text x="60" y="180" fill="#9aa6b2" font-family="Inter, sans-serif" font-size="28">Hero image</text>
</svg>
